<svg width="271" height="25" viewBox="0 0 271 25" fill="none" xmlns="http://www.w3.org/2000/svg">
<path fill-rule="evenodd" clip-rule="evenodd" d="M0 0H13.5751C16.3448 0 18.094 0.592201 18.8229 1.78571C19.5517 2.97923 19.9162 4.3094 19.9162 5.77624C19.9162 7.24308 19.5973 8.54592 18.9504 9.63921C18.3036 10.7325 17.3014 11.3065 15.9257 11.3703C17.3469 11.4431 18.4585 12.0445 19.2511 13.1833C20.0437 14.3222 20.4446 15.7799 20.4446 17.5656C20.4446 19.5791 20.0802 21.2555 19.3513 22.5948C18.6224 23.934 16.8823 24.5991 14.1399 24.5991H0V0ZM11.9898 9.87609C13.0375 9.87609 13.7482 9.56633 14.1217 8.94679C14.4953 8.32726 14.6866 7.5164 14.6866 6.5051C14.6866 5.4938 14.5226 4.79227 14.2037 4.28207C13.8848 3.77187 13.2471 3.51676 12.2996 3.51676H5.19315V9.87609H11.9898ZM12.828 21.0459C13.7755 21.0459 14.4224 20.7179 14.7595 20.062C15.0966 19.406 15.2697 18.3947 15.2697 17.0372C15.2697 15.6797 15.0692 14.7413 14.6593 14.0579C14.2493 13.3746 13.4749 13.0284 12.3178 13.0284H5.19315V21.0459H12.828ZM29.5554 0H43.1305C45.9002 0 47.6494 0.592201 48.3783 1.78571C49.1072 2.97923 49.4716 4.3094 49.4716 5.77624C49.4716 7.24308 49.1527 8.54592 48.5059 9.63921C47.859 10.7325 46.8568 11.3065 45.4811 11.3703C46.9024 11.4431 48.0139 12.0445 48.8065 13.1833C49.5992 14.3222 50 15.7799 50 17.5656C50 19.5791 49.6356 21.2555 48.9067 22.5948C48.1779 23.934 46.4377 24.5991 43.6954 24.5991H29.5554V0ZM41.5452 9.87609C42.593 9.87609 43.3036 9.56633 43.6771 8.94679C44.0507 8.32726 44.242 7.5164 44.242 6.5051C44.242 5.4938 44.078 4.79227 43.7591 4.28207C43.4403 3.77187 42.8025 3.51676 41.855 3.51676H34.7486V9.87609H41.5452ZM42.3834 21.0459C43.3309 21.0459 43.9778 20.7179 44.3149 20.062C44.652 19.406 44.8251 18.3947 44.8251 17.0372C44.8251 15.6797 44.6247 14.7413 44.2147 14.0579C43.8047 13.3746 43.0303 13.0284 41.8732 13.0284H34.7486V21.0459H42.3834ZM67.4927 0H59.1108V24.5991H64.2493V3.66584L74.2347 24.5991H82.5255V0H77.3688L77.3349 20.5823L67.4927 0ZM91.6363 0H108.929V3.55321H96.8294V10.4045H108.109V13.7755H96.8294V21.0459H108.929V24.5991H91.6363V0ZM118.039 3.55321H125.456V24.5991H130.63V3.55321H138.028V0H118.039V3.55321ZM147.139 0H152.715L156.005 20.6704L160.35 0H167.165L171.512 20.6788L174.891 0H180.485L175.765 24.5991H167.857L163.766 3.57196L159.639 24.5991H151.731L147.139 0ZM189.595 12.5182C189.595 16.7183 190.452 19.8524 192.174 21.9114C193.896 23.9705 196.784 25 200.838 25C204.892 25 207.781 23.9705 209.503 21.9114C211.224 19.8524 212.081 16.7183 212.081 12.5182C212.081 8.31815 211.224 5.17493 209.503 3.10678C207.781 1.03863 204.892 0 200.838 0C196.784 0 193.896 1.03863 192.174 3.10678C190.452 5.17493 189.595 8.31815 189.595 12.5182ZM206.924 12.5182C206.924 16.2992 206.368 18.7318 205.248 19.8251C204.127 20.9184 202.679 21.465 200.856 21.465C199.034 21.465 197.567 20.9184 196.447 19.8251C195.326 18.7318 194.77 16.3174 194.77 12.5182C194.77 8.71902 195.326 6.26822 196.447 5.18404C197.567 4.09985 199.043 3.55321 200.856 3.55321C202.669 3.55321 204.127 4.09985 205.248 5.18404C206.368 6.26822 206.924 8.73724 206.924 12.5182ZM221.192 0H234.475C237.054 0 238.785 0.719752 239.668 2.15015C240.552 3.58054 240.999 5.31159 240.999 7.34329C240.999 9.375 240.534 11.0332 239.614 12.3998C238.975 13.3483 237.919 13.9676 236.447 14.2578L241.345 24.5991H235.732L231.252 14.4497H226.385V24.5991H221.192V0ZM232.781 11.2609C233.938 11.2609 234.73 10.9238 235.159 10.2405C235.587 9.55722 235.805 8.6188 235.805 7.41618C235.805 6.21356 235.587 5.26604 235.149 4.58273C234.712 3.89942 233.919 3.55321 232.781 3.55321H226.385V11.2609H232.781ZM255.612 0H250.456V24.5991H255.612V13.7026L264.395 24.5991H270.208L260.313 12.3178L270.171 0H264.34L255.612 10.9329V0Z" fill="black"/>
</svg>
