<?xml version="1.0" encoding="utf-8"?>
<!-- Generator: Adobe Illustrator 24.2.1, SVG Export Plug-In . SVG Version: 6.00 Build 0)  -->
<svg version="1.1" id="Livello_1" xmlns="http://www.w3.org/2000/svg" xmlns:xlink="http://www.w3.org/1999/xlink" x="0px" y="0px"
	 viewBox="0 0 700 700" style="enable-background:new 0 0 700 700;" xml:space="preserve">
<style type="text/css">
	.st0{fill:#000;}
</style>
<g>
	<path class="st0" d="M37.8,194.2h624.5c7.8,0,14.2-6.4,14.2-14.2s-6.4-14.2-14.2-14.2H37.8c-7.8,0-14.2,6.4-14.2,14.2
		S29.9,194.2,37.8,194.2L37.8,194.2z"/>
	<path class="st0" d="M662.2,336.8H37.8c-7.8,0-14.2,6.4-14.2,14.2c0,7.8,6.4,14.2,14.2,14.2h624.5c7.8,0,14.2-6.4,14.2-14.2
		C676.4,343.2,670.1,336.8,662.2,336.8z"/>
	<path class="st0" d="M662.2,505.8H37.8c-7.8,0-14.2,6.4-14.2,14.2s6.4,14.2,14.2,14.2h624.5c7.8,0,14.2-6.4,14.2-14.2
		C676.4,512.1,670.1,505.8,662.2,505.8z"/>
</g>
</svg>
